<?xml version="1.0" encoding="utf-8"?>
<!-- Generator: Adobe Illustrator 25.3.1, SVG Export Plug-In . SVG Version: 6.00 Build 0)  -->
<svg version="1.1" id="Layer_3" xmlns="http://www.w3.org/2000/svg" xmlns:xlink="http://www.w3.org/1999/xlink" x="0px" y="0px"
	 viewBox="0 0 1000 800" style="enable-background:new 0 0 1000 800;" xml:space="preserve">
<style type="text/css">
	.st0{fill:#231F20;}
</style>
<g id="XMLID_3806_">
	<path id="XMLID_3807_" class="st0" d="M518.6,330.7c-6.5-2.8-13.6-4.4-21.1-4.5v9.7c6.2,0.1,12.1,1.4,17.4,3.8L518.6,330.7z"/>
	<path id="XMLID_3808_" class="st0" d="M353.5,457.7l0.3-2.9c-3.1-1.3-6.2-2.4-9.2-3.5l-0.3,2.7
		C347.4,455.1,350.4,456.4,353.5,457.7z"/>
	<path id="XMLID_3809_" class="st0" d="M365.7,419.4l0.2,3.3c3.3,1.1,6.5,2.2,9.8,3.4l-0.2-3.6C372.2,421.5,368.9,420.4,365.7,419.4
		z"/>
	<path id="XMLID_3810_" class="st0" d="M366.3,463.8l0.4-3.2c-3-1.5-6.1-2.9-9.1-4.2l-0.4,3C360.2,460.8,363.3,462.3,366.3,463.8z"
		/>
	<path id="XMLID_3811_" class="st0" d="M325.4,411.5c0.1,0.8,0.3,1.6,0.5,2.5c2.9,0.2,5.9,0.6,8.9,1l-0.1-2.6
		C331.5,412,328.4,411.7,325.4,411.5z"/>
	<path id="XMLID_3812_" class="st0" d="M340.9,450.1c-1.6-0.5-3.1-0.9-4.7-1.4c0.4,1,0.8,2,1.3,3c1,0.3,2.1,0.6,3.1,1L340.9,450.1z"
		/>
	<path id="XMLID_3813_" class="st0" d="M420.4,496.1c3,1.8,6,3.6,9,5.3l0.7-5.5c-3-1.6-6-3.2-9.1-4.9L420.4,496.1z"/>
	<path id="XMLID_3814_" class="st0" d="M395.2,480.5c3,1.9,6,3.7,9,5.6l0.5-4.5c-0.3-0.2-0.6-0.4-0.9-0.5c-2.7-1.6-5.4-3.1-8.1-4.7
		L395.2,480.5z"/>
	<path id="XMLID_3815_" class="st0" d="M369.9,465.7c3,1.6,6,3.3,9.1,5l0.4-3.6c-3-1.6-6.1-3.2-9.1-4.8L369.9,465.7z"/>
	<path id="XMLID_3816_" class="st0" d="M416.8,493.9l0.6-5c-3-1.7-6-3.4-9-5.2l-0.6,4.6C410.8,490.2,413.8,492,416.8,493.9z"/>
	<path id="XMLID_3817_" class="st0" d="M391.6,478.3l0.5-4c-3-1.7-6-3.4-9-5.1l-0.4,3.7C385.6,474.6,388.6,476.5,391.6,478.3z"/>
	<path id="XMLID_3818_" class="st0" d="M430.3,442c-3.2-1-6.5-2.2-9.8-3.3l0.3,5.2c3.3,1.3,6.6,2.5,9.8,3.7L430.3,442z"/>
	<path id="XMLID_3819_" class="st0" d="M379.3,423.9l0.2,3.7c3.3,1.2,6.5,2.5,9.8,3.8l-0.2-4C385.9,426.1,382.6,425,379.3,423.9z"/>
	<path id="XMLID_3822_" class="st0" d="M531.4,313.3c-66.1-4.7-108.3,26-120.5,36.3l-0.8-15.1c0,0,0,0,0,0l-1.8-67.1c0,0,0,0,0.1,0
		l1.7-14.6c14.2-7.7,61.7-28.9,125.2-10.9c38.5,10.9,81.9,51,126,65.4C633.4,246,571.7,203.5,500,203.5
		c-97.9,0-177.3,79.4-177.3,177.3c0,9.7,0.8,19.2,2.3,28.5c47.8,2.5,101.6,36,143.6,38.9c66.1,4.7,108.3-26,120.5-36.3l0.8,15.1
		c0,0,0,0,0,0l1.8,67.1c0,0,0,0-0.1,0l-1.7,14.6c-14.2,7.7-61.7,28.9-125.2,10.9c-38.5-10.9-81.9-51-126-65.4
		c27.9,61.2,89.7,103.7,161.3,103.7c97.9,0,177.3-79.4,177.3-177.3c0-9.7-0.8-19.2-2.3-28.5C627.1,349.8,573.4,316.3,531.4,313.3z
		 M496.6,442.2c-33.1,0-59.9-26.8-59.9-59.9s26.8-59.9,59.9-59.9s59.9,26.8,59.9,59.9S529.6,442.2,496.6,442.2z"/>
	<path id="XMLID_3823_" class="st0" d="M440.9,495.3c9.2,4.5,18.1,8.1,26.7,10.3c5.8,1.4,11.5,2.6,17.3,3.5l-2.5-45.4
		c-4.8-0.1-9.5-0.4-14.3-0.9c-9.4-1-19.2-3.4-29.4-6.7L440.9,495.3z"/>
	<path id="XMLID_3824_" class="st0" d="M529.8,350c4.1,4.2,7.4,9.2,9.7,14.7l9-3.8c-2.8-6.7-6.8-12.7-11.8-17.8L529.8,350z"/>
	<path id="XMLID_3825_" class="st0" d="M457.6,449.1c-3.2-0.6-6.4-1.2-9.7-2l0.3,6.2c3.3,0.9,6.5,1.7,9.7,2.4L457.6,449.1z"/>
	<path id="XMLID_3826_" class="st0" d="M471.5,457.6l-0.4-7c-0.9,0-1.8-0.1-2.6-0.2c-2.3-0.2-4.6-0.4-7-0.7l0.4,6.7
		c2.3,0.4,4.6,0.7,6.9,1C469.6,457.4,470.6,457.5,471.5,457.6z"/>
	<path id="XMLID_3827_" class="st0" d="M543,382.3c0,6.1-1.2,11.9-3.3,17.2l9,3.7c2.6-6.5,4.1-13.5,4.1-20.9v0L543,382.3L543,382.3z
		"/>
	<path id="XMLID_3828_" class="st0" d="M479.8,425.6l-3.7,9c6.3,2.5,13.2,3.9,20.4,3.9c0.3,0,0.6,0,0.9,0v-9.7c-0.3,0-0.6,0-0.9,0
		C490.7,428.7,485,427.6,479.8,425.6z"/>
	<path id="XMLID_3829_" class="st0" d="M444.9,404.4c2.9,6.8,7.2,12.9,12.4,18.1l6.9-6.9c-4.4-4.2-7.9-9.3-10.3-15L444.9,404.4z"/>
	<path id="XMLID_3830_" class="st0" d="M453.7,364.5l-9-3.7c-2.8,6.6-4.3,13.9-4.3,21.6h9.7C450.2,376,451.4,370,453.7,364.5z"/>
	<path id="XMLID_3833_" class="st0" d="M496.6,339.6c-23.6,0-42.7,19.1-42.7,42.7c0,23.6,19.1,42.7,42.7,42.7s42.7-19.1,42.7-42.7
		C539.2,358.7,520.1,339.6,496.6,339.6z M496.6,404.4c-12.2,0-22.1-9.9-22.1-22.1c0-12.2,9.9-22.1,22.1-22.1s22.1,9.9,22.1,22.1
		C518.6,394.5,508.8,404.4,496.6,404.4z"/>
	<path id="XMLID_3834_" class="st0" d="M479.4,339.2l-3.8-9c-6.9,2.8-13.1,6.9-18.3,11.9l6.9,6.9
		C468.6,344.9,473.7,341.5,479.4,339.2z"/>
	<path id="XMLID_3835_" class="st0" d="M515.3,424.8l3.8,9c6.6-2.9,12.6-7.1,17.6-12.2l-6.9-6.9
		C525.7,418.9,520.8,422.3,515.3,424.8z"/>
	<path id="XMLID_3836_" class="st0" d="M382.5,462.7c8.1,4.4,16.2,9.1,24.2,13.8c6.9,4,13.7,8,20.4,11.6l-2-36.9
		c-7.5-2.8-15.2-6-23-9.2c-7-2.9-14.1-5.8-21.2-8.5L382.5,462.7z"/>
	<path id="XMLID_3837_" class="st0" d="M583.4,324.3c3.2,1.2,6.5,2.3,9.8,3.5l-0.3-4.6c-3.3-1.3-6.6-2.6-9.8-3.9L583.4,324.3z"/>
	<path id="XMLID_3838_" class="st0" d="M569.7,319.6c3.2,1,6.5,2.2,9.8,3.3l-0.3-5.2c-3.3-1.3-6.6-2.5-9.8-3.7L569.7,319.6z"/>
	<path id="XMLID_3839_" class="st0" d="M583.2,267.7l-0.6,5c3,1.7,6,3.4,9,5.2l0.6-4.6C589.2,271.4,586.2,269.6,583.2,267.7z"/>
	<path id="XMLID_3840_" class="st0" d="M579.6,265.5c-3-1.8-6-3.6-9-5.3l-0.7,5.5c3,1.6,6,3.2,9.1,4.9L579.6,265.5z"/>
	<path id="XMLID_3841_" class="st0" d="M608.4,283.3l-0.5,4c3,1.7,6,3.4,9,5.1l0.4-3.7C614.4,287,611.4,285.1,608.4,283.3z"/>
	<path id="XMLID_3842_" class="st0" d="M604.8,281.1c-3-1.9-6-3.7-9-5.6l-0.5,4.5c0.3,0.2,0.6,0.4,0.9,0.5c2.7,1.6,5.4,3.1,8.1,4.7
		L604.8,281.1z"/>
	<path id="XMLID_3843_" class="st0" d="M617.5,298.9c-8.1-4.4-16.2-9.1-24.2-13.8c-6.9-4-13.7-8-20.4-11.6l2,36.9
		c7.5,2.8,15.2,6,23,9.2c7,2.9,14.1,5.8,21.2,8.5L617.5,298.9z"/>
	<path id="XMLID_3844_" class="st0" d="M651.9,346.8c3.3,0.7,6.5,1.3,9.7,1.9l-0.1-2.7c-3.2-0.6-6.5-1.3-9.7-2.1L651.9,346.8z"/>
	<path id="XMLID_3845_" class="st0" d="M416.6,437.3c-3.2-1.2-6.5-2.3-9.8-3.5l0.3,4.6c3.3,1.3,6.6,2.6,9.8,3.9L416.6,437.3z"/>
	<path id="XMLID_3846_" class="st0" d="M638.2,343.3c3.3,0.9,6.5,1.8,9.7,2.6l-0.2-3c-3.2-0.9-6.5-1.8-9.8-2.8L638.2,343.3z"/>
	<path id="XMLID_3847_" class="st0" d="M597.1,329.3c0.3,0.1,0.7,0.3,1,0.4c2.9,1.1,5.8,2.1,8.8,3.2l-0.2-4.2
		c-3.3-1.3-6.6-2.6-9.8-3.9L597.1,329.3z"/>
	<path id="XMLID_3848_" class="st0" d="M620.7,337.7l-0.2-3.7c-3.3-1.2-6.5-2.5-9.8-3.8l0.2,4C614.1,335.5,617.4,336.6,620.7,337.7z
		"/>
	<path id="XMLID_3849_" class="st0" d="M666.2,319.1c-11.7-2.8-23.3-7.4-34.8-13l1.5,27.1c13.6,4.7,27.1,8.2,40.2,9.4
		C671.3,334.5,669,326.7,666.2,319.1z"/>
	<path id="XMLID_3850_" class="st0" d="M348.1,414.8c-3.3-0.7-6.5-1.3-9.7-1.9l0.1,2.7c3.2,0.6,6.5,1.3,9.7,2.1L348.1,414.8z"/>
	<path id="XMLID_3851_" class="st0" d="M361.8,418.3c-3.3-0.9-6.5-1.8-9.7-2.6l0.2,3c3.2,0.9,6.5,1.8,9.8,2.8L361.8,418.3z"/>
	<path id="XMLID_3852_" class="st0" d="M495.8,463.4l2.6,47.2c7.7,0.6,15.3,0.7,22.7,0.3c6.8-0.4,13.6-1.2,20.3-2.4l-2.9-52.4
		c-12.3,3.7-26.4,6.5-41.9,7.4C496.4,463.4,496.1,463.4,495.8,463.4z"/>
	<path id="XMLID_3853_" class="st0" d="M333.8,442.5c11.7,2.8,23.3,7.4,34.8,13l-1.5-27.1c-13.6-4.7-27.1-8.2-40.2-9.4
		C328.7,427.1,331,434.9,333.8,442.5z"/>
	<path id="XMLID_3854_" class="st0" d="M402.9,432.3c-0.3-0.1-0.7-0.3-1-0.4c-2.9-1.1-5.8-2.1-8.8-3.2l0.2,4.2
		c3.3,1.3,6.6,2.6,9.8,3.9L402.9,432.3z"/>
	<path id="XMLID_3855_" class="st0" d="M646.5,303.9l-0.3,2.9c3.1,1.3,6.2,2.4,9.2,3.5l0.3-2.7C652.6,306.5,649.6,305.2,646.5,303.9
		z"/>
	<path id="XMLID_3856_" class="st0" d="M674.6,350.1c-0.1-0.8-0.3-1.6-0.5-2.5c-2.9-0.2-5.9-0.6-8.8-1l0.1,2.6
		C668.5,349.6,671.6,349.9,674.6,350.1z"/>
	<path id="XMLID_3857_" class="st0" d="M633.7,297.8l-0.4,3.2c3,1.5,6.1,2.9,9.1,4.2l0.4-3C639.8,300.8,636.7,299.3,633.7,297.8z"/>
	<path id="XMLID_3858_" class="st0" d="M634.3,342.2l-0.2-3.3c-3.3-1.1-6.5-2.2-9.8-3.4l0.2,3.6
		C627.8,340.1,631.1,341.2,634.3,342.2z"/>
	<path id="XMLID_3859_" class="st0" d="M630.1,295.8c-3-1.6-6-3.3-9.1-5l-0.4,3.6c3,1.6,6.1,3.2,9.1,4.8L630.1,295.8z"/>
	<path id="XMLID_3860_" class="st0" d="M659.1,311.5c1.6,0.5,3.1,0.9,4.7,1.4c-0.4-1-0.8-2-1.3-3c-1-0.3-2.1-0.6-3.1-1L659.1,311.5z
		"/>
	<path id="XMLID_3861_" class="st0" d="M565.8,318.4l-0.3-5.7c-3.3-1.1-6.6-2.2-9.8-3.2l0.3,6.1
		C559.3,316.4,562.5,317.4,565.8,318.4z"/>
	<path id="XMLID_3862_" class="st0" d="M488.4,237c-3.3-0.1-6.5,0-9.7,0.1l-1,8.4c3.2-0.2,6.4-0.3,9.7-0.3L488.4,237z"/>
	<path id="XMLID_3863_" class="st0" d="M465.1,238.2l-1,8.7c3.2-0.4,6.4-0.8,9.8-1.1l1-8.5C471.5,237.6,468.2,237.9,465.1,238.2z"/>
	<path id="XMLID_3864_" class="st0" d="M449,324.3c3-1.3,6.1-2.5,9.4-3.6l-0.5-8.8c-3.3,1.1-6.4,2.2-9.4,3.4L449,324.3z"/>
	<path id="XMLID_3865_" class="st0" d="M492.3,237.1l-1,8.1c3.1,0,6.3,0.2,9.6,0.4l0.9-7.8C498.6,237.5,495.4,237.3,492.3,237.1z"/>
	<path id="XMLID_3866_" class="st0" d="M507.6,311C507.6,311,507.6,311,507.6,311c1.4-0.1,2.7-0.1,4.1-0.2l-0.4-7.5
		c-3,0-5.9,0.1-8.9,0.3c-0.2,0-0.5,0-0.7,0l0.4,7.8C503.9,311.2,505.7,311.1,507.6,311z"/>
	<path id="XMLID_3867_" class="st0" d="M461.2,238.8c-3.4,0.5-6.7,1.1-9.9,1.7l-1.1,9c3.2-0.7,6.5-1.4,9.9-1.9L461.2,238.8z"/>
	<path id="XMLID_3868_" class="st0" d="M488.7,313c3.1-0.5,6.3-0.9,9.5-1.3l-0.4-7.9c-3.3,0.3-6.4,0.6-9.5,1L488.7,313z"/>
	<path id="XMLID_3869_" class="st0" d="M504.2,298.2l-2.6-47.2c-7.7-0.6-15.3-0.7-22.7-0.3c-6.8,0.4-13.6,1.2-20.3,2.4l2.9,52.4
		c12.3-3.7,26.4-6.5,41.9-7.4C503.6,298.2,503.9,298.2,504.2,298.2z"/>
	<path id="XMLID_3870_" class="st0" d="M528.5,304l0.4,7c0.9,0,1.8,0.1,2.6,0.2c2.3,0.2,4.6,0.4,7,0.7l-0.4-6.7
		c-2.3-0.4-4.6-0.7-6.9-1C530.4,304.1,529.4,304.1,528.5,304z"/>
	<path id="XMLID_3871_" class="st0" d="M475.4,315.7c3.1-0.7,6.2-1.4,9.5-2l-0.5-8.2c-3.3,0.5-6.4,1.1-9.5,1.8L475.4,315.7z"/>
	<path id="XMLID_3872_" class="st0" d="M515.1,239.5c-2.9-0.5-5.9-0.9-8.8-1.3c-0.2,0-0.5-0.1-0.7-0.1l-0.9,7.7
		c1.8,0.2,3.6,0.3,5.5,0.6c0,0,0,0,0,0c1.3,0.2,2.7,0.3,4,0.5L515.1,239.5z"/>
	<path id="XMLID_3873_" class="st0" d="M462.2,319.4c3-1,6.2-1.9,9.4-2.8l-0.5-8.5c-3.3,0.8-6.4,1.6-9.5,2.6L462.2,319.4z"/>
	<path id="XMLID_3874_" class="st0" d="M445.2,256.2c-11.6,3.2-22.8,7.7-33.3,13.3l1.5,58.5c7.7-5.2,19.5-12.1,34.7-18L445.2,256.2z
		"/>
	<path id="XMLID_3875_" class="st0" d="M515.5,310.7c3.2,0,6.4,0,9.6,0.1l-0.4-7.2c-3.2-0.2-6.4-0.3-9.6-0.4L515.5,310.7z"/>
	<path id="XMLID_3876_" class="st0" d="M412.8,345.3c1.8-1.4,3.9-3,6.3-4.7l-0.5-9.6c-2.5,1.7-4.6,3.3-6.3,4.6L412.8,345.3z"/>
	<path id="XMLID_3877_" class="st0" d="M435.9,330.5c2.9-1.5,6-3.1,9.4-4.5l-0.5-9.1c-3.3,1.4-6.5,2.9-9.4,4.3L435.9,330.5z"/>
	<path id="XMLID_3878_" class="st0" d="M422.9,338.1c2.8-1.8,5.9-3.7,9.3-5.6l-0.5-9.4c-3.4,1.9-6.6,3.7-9.3,5.4L422.9,338.1z"/>
	<path id="XMLID_3879_" class="st0" d="M423.2,249l-1.1,9.5c3.1-1.3,6.4-2.6,10.1-3.9l1.1-9.3C429.6,246.5,426.3,247.8,423.2,249z"
		/>
	<path id="XMLID_3880_" class="st0" d="M447.3,241.4c-3.5,0.8-6.9,1.7-10,2.7l-1.1,9.2c3.1-1,6.5-2,10-2.9L447.3,241.4z"/>
	<path id="XMLID_3881_" class="st0" d="M412.1,254.2l-1.2,9.7c2-1.1,4.4-2.3,7.1-3.5l1.1-9.6C416.4,252,414.1,253.2,412.1,254.2z"/>
	<path id="XMLID_3882_" class="st0" d="M540.6,252.8l0.8-6.7c-2.2-0.8-4.4-1.5-6.6-2.1c-0.9-0.3-1.8-0.5-2.7-0.7l-0.8,7
		c0.9,0.2,1.7,0.4,2.6,0.6C536.1,251.4,538.3,252.1,540.6,252.8z"/>
	<path id="XMLID_3883_" class="st0" d="M518.9,240.2l-0.9,7.4c3.1,0.5,6.3,1.1,9.4,1.8l0.8-7.1C525.2,241.5,522.1,240.8,518.9,240.2
		z"/>
	<path id="XMLID_3884_" class="st0" d="M542.4,312.5c3.2,0.6,6.4,1.2,9.7,2l-0.3-6.2c-3.3-0.9-6.5-1.7-9.7-2.4L542.4,312.5z"/>
	<path id="XMLID_3885_" class="st0" d="M545.1,247.5l-0.8,6.6c3,1.1,6.1,2.3,9.2,3.7l0.7-6.2C551.2,250.1,548.1,248.7,545.1,247.5z"
		/>
	<path id="XMLID_3886_" class="st0" d="M567,258.2c-3.1-1.7-6.1-3.3-9.1-4.8l-0.7,6.1c3,1.4,6.1,2.9,9.1,4.5L567,258.2z"/>
	<path id="XMLID_3887_" class="st0" d="M511.6,524.6c3.3,0.1,6.5,0,9.7-0.1l1-8.4c-3.1,0.2-6.4,0.3-9.7,0.3L511.6,524.6z"/>
	<path id="XMLID_3888_" class="st0" d="M507.7,524.5l1-8.1c-3.1,0-6.3-0.2-9.6-0.4l-0.9,7.8C501.4,524.1,504.6,524.3,507.7,524.5z"
		/>
	<path id="XMLID_3889_" class="st0" d="M481.1,521.4l0.9-7.4c-3.1-0.5-6.3-1.1-9.4-1.8l-0.8,7.1
		C474.8,520.1,477.9,520.8,481.1,521.4z"/>
	<path id="XMLID_3890_" class="st0" d="M484.5,450.9c-3.2,0-6.4,0-9.6-0.1l0.4,7.2c3.2,0.2,6.4,0.3,9.6,0.4L484.5,450.9z"/>
	<path id="XMLID_3891_" class="st0" d="M484.9,522.1c2.9,0.5,5.9,0.9,8.8,1.3c0.2,0,0.5,0.1,0.7,0.1l0.9-7.7
		c-1.8-0.2-3.6-0.3-5.5-0.6c0,0,0,0,0,0c-1.3-0.2-2.7-0.3-4-0.5L484.9,522.1z"/>
	<path id="XMLID_3892_" class="st0" d="M511.3,448.6c-3.1,0.5-6.3,0.9-9.5,1.3l0.4,7.9c3.3-0.3,6.4-0.6,9.5-1L511.3,448.6z"/>
	<path id="XMLID_3893_" class="st0" d="M492.4,450.6C492.4,450.6,492.4,450.6,492.4,450.6c-1.4,0.1-2.7,0.1-4.1,0.2l0.4,7.5
		c3,0,5.9-0.1,8.9-0.3c0.2,0,0.5,0,0.7,0l-0.4-7.8C496.1,450.4,494.3,450.5,492.4,450.6z"/>
	<path id="XMLID_3894_" class="st0" d="M524.6,445.9c-3.1,0.7-6.2,1.4-9.5,2l0.5,8.2c3.3-0.5,6.4-1.1,9.5-1.8L524.6,445.9z"/>
	<path id="XMLID_3895_" class="st0" d="M537.8,442.2c-3,1-6.2,1.9-9.4,2.8l0.5,8.5c3.3-0.8,6.4-1.6,9.5-2.6L537.8,442.2z"/>
	<path id="XMLID_3896_" class="st0" d="M559.1,266.3c-9.2-4.5-18.1-8.1-26.7-10.3c-5.8-1.4-11.5-2.6-17.3-3.5l2.5,45.4
		c4.8,0.1,9.5,0.4,14.3,0.9c9.4,1,19.2,3.4,29.4,6.7L559.1,266.3z"/>
	<path id="XMLID_3897_" class="st0" d="M538.8,522.8c3.4-0.5,6.7-1.1,9.9-1.7l1.1-9c-3.2,0.7-6.5,1.4-9.9,1.9L538.8,522.8z"/>
	<path id="XMLID_3898_" class="st0" d="M534.9,523.4l1-8.7c-3.2,0.4-6.4,0.8-9.8,1.1l-1,8.5C528.5,524,531.8,523.7,534.9,523.4z"/>
	<path id="XMLID_3899_" class="st0" d="M551,437.3c-3,1.3-6.1,2.5-9.4,3.6l0.5,8.8c3.3-1.1,6.4-2.2,9.4-3.4L551,437.3z"/>
	<path id="XMLID_3900_" class="st0" d="M577.1,423.5c-2.8,1.8-5.9,3.7-9.3,5.6l0.5,9.4c3.4-1.9,6.6-3.7,9.3-5.4L577.1,423.5z"/>
	<path id="XMLID_3901_" class="st0" d="M587.2,416.3c-1.8,1.4-3.9,3-6.3,4.7l0.5,9.6c2.5-1.7,4.6-3.3,6.3-4.6L587.2,416.3z"/>
	<path id="XMLID_3902_" class="st0" d="M459.4,508.8l-0.8,6.7c2.2,0.8,4.4,1.5,6.6,2.1c0.9,0.3,1.8,0.5,2.7,0.7l0.8-7
		c-0.9-0.2-1.7-0.4-2.6-0.6C463.9,510.2,461.7,509.5,459.4,508.8z"/>
	<path id="XMLID_3903_" class="st0" d="M564.1,431.1c-2.9,1.5-6,3.1-9.4,4.5l0.5,9.1c3.3-1.4,6.5-2.9,9.4-4.3L564.1,431.1z"/>
	<path id="XMLID_3904_" class="st0" d="M587.9,507.4l1.2-9.7c-2,1.1-4.4,2.3-7.1,3.5l-1.1,9.6C583.6,509.6,585.9,508.4,587.9,507.4z
		"/>
	<path id="XMLID_3905_" class="st0" d="M554.8,505.4c11.6-3.2,22.8-7.7,33.3-13.3l-1.5-58.5c-7.7,5.2-19.5,12.1-34.7,18L554.8,505.4
		z"/>
	<path id="XMLID_3906_" class="st0" d="M434.2,443.2l0.3,5.7c3.3,1.1,6.6,2.2,9.8,3.2l-0.3-6.1C440.7,445.2,437.5,444.2,434.2,443.2
		z"/>
	<path id="XMLID_3907_" class="st0" d="M454.9,514.1l0.8-6.6c-3-1.1-6.1-2.3-9.2-3.7l-0.7,6.2C448.8,511.5,451.9,512.9,454.9,514.1z
		"/>
	<path id="XMLID_3908_" class="st0" d="M552.7,520.2c3.5-0.8,6.9-1.7,10-2.7l1.1-9.2c-3.1,1-6.5,2-10,2.9L552.7,520.2z"/>
	<path id="XMLID_3909_" class="st0" d="M576.8,512.6l1.1-9.5c-3.1,1.3-6.4,2.6-10.1,3.9l-1.1,9.3
		C570.4,515.1,573.7,513.8,576.8,512.6z"/>
	<path id="XMLID_3910_" class="st0" d="M433,503.4c3.1,1.7,6.1,3.3,9.1,4.8l0.7-6.1c-3-1.4-6.1-2.9-9.1-4.5L433,503.4z"/>
</g>
</svg>
