<?xml version="1.0" encoding="utf-8"?>
<!-- Generator: Adobe Illustrator 25.3.1, SVG Export Plug-In . SVG Version: 6.00 Build 0)  -->
<svg version="1.1" xmlns="http://www.w3.org/2000/svg" xmlns:xlink="http://www.w3.org/1999/xlink" x="0px" y="0px"
	 viewBox="0 0 800 800" style="enable-background:new 0 0 800 800;" xml:space="preserve">
<g id="BACKGROUND">
</g>
<g id="LOGO">
	<g>
		<g>
			<path style="fill:#353535;" d="M1861.9,639.8l0.1-0.2l41.6-6l-25.9-34.6c-26.3,4.3-48.2,21.8-58.5,45.5l42.7-4.9L1861.9,639.8z"
				/>
			<path style="fill:#353535;" d="M1845.1,681.8l15.5-38.8l-42.9,4.9c-3.2,8.5-5,17.7-5,27.4c0,17.4,5.8,33.5,15.5,46.4
				L1845.1,681.8L1845.1,681.8z"/>
			<path style="fill:#353535;" d="M1935,668.8l-15.5,38.7l43.4-6.2c2.9-8.1,4.5-16.9,4.5-26c0-17.6-5.9-33.7-15.7-46.7L1935,668.8
				L1935,668.8z"/>
			<path style="fill:#353535;" d="M1932.7,665.8l16.7-40.2c-14.2-16.9-35.5-27.7-59.3-27.7c-3,0-5.9,0.2-8.7,0.5l32.5,43.4
				L1932.7,665.8z"/>
			<path style="fill:#353535;" d="M1961.6,704.8l-54.9,7.8l-29.9,4.3l26.1,34.6C1929.5,747.1,1951.5,729.1,1961.6,704.8z"/>
			<path style="fill:#353535;" d="M1847.4,684.7l-16.9,39.9c14.2,17.1,35.6,28,59.6,28c3.1,0,6.1-0.2,9.1-0.5l-29.6-39.2
				L1847.4,684.7z"/>
			<polygon style="fill:#353535;" points="1919.5,707.5 1935,668.8 1935,668.7 1918.8,707.6 			"/>
			<path style="fill:#FFFFFF;" d="M1861.9,639.8l0-0.2l-42.7,4.9c-0.5,1.1-1,2.3-1.4,3.4l42.9-4.9L1861.9,639.8z"/>
			<polygon style="fill:#353535;" points="1861.9,639.8 1860.6,643 1862.2,642.8 			"/>
			<path style="fill:#353535;" d="M1827.4,723.5l3,1.3l0.1-0.2c-0.8-1-1.6-1.9-2.3-2.9L1827.4,723.5z"/>
			<path style="fill:#FFFFFF;" d="M1845.1,681.8l-16.9,39.9c0.7,1,1.5,2,2.3,2.9l16.9-39.9L1845.1,681.8z"/>
			<path style="fill:#FFFFFF;" d="M1873.2,717.4l-3.6-4.6l29.6,39.2c1.2-0.1,2.5-0.3,3.7-0.5l-26.1-34.6L1873.2,717.4z"/>
			<path style="fill:#FFFFFF;" d="M1906.9,633.1l6.9,8.8l-32.5-43.4c-1.2,0.1-2.5,0.3-3.7,0.5l25.9,34.6L1906.9,633.1z"/>
			<path style="fill:#FFFFFF;" d="M1918.2,710.9l-11.5,1.7l54.9-7.8c0.5-1.1,0.9-2.3,1.3-3.5l-43.4,6.2L1918.2,710.9z"/>
			<path style="fill:#FFFFFF;" d="M1935,668.7l16.7-40.2c-0.7-1-1.5-2-2.3-2.9l-16.7,40.2L1935,668.7z"/>
			<polygon style="fill:#FFFFFF;" points="1918.5,708.4 1917.1,707.8 1918.8,707.6 1935,668.7 1932.7,665.8 1913.8,641.8 
				1906.9,633.1 1903.5,633.6 1861.9,639.6 1861.9,639.8 1860.7,642.5 1860.6,643 1845.1,681.8 1845.1,681.8 1847.4,684.7 
				1869.6,712.9 1873.2,717.4 1876.7,716.9 1906.7,712.6 1918.2,710.9 1919.5,707.5 1918.8,707.6 			"/>
			<polygon style="fill:#353535;" points="1918.5,708.4 1918.8,707.6 1917.1,707.8 			"/>
		</g>
		<g>
			<g>
				<g>
					<g>
						<path style="fill:#353535;" d="M1876.7,669h-0.7v-3.1l-2.7-4.1h0.9l2.2,3.5l2.2-3.5h0.9l-2.7,4.1V669z"/>
						<path style="fill:#353535;" d="M1889.3,665.3c0,0.6-0.1,1.1-0.3,1.5c-0.2,0.5-0.5,0.9-0.8,1.2c-0.3,0.3-0.7,0.6-1.2,0.8
							c-0.5,0.2-1,0.3-1.5,0.3c-0.5,0-1-0.1-1.5-0.3c-0.5-0.2-0.9-0.5-1.2-0.8c-0.3-0.3-0.6-0.7-0.8-1.2c-0.2-0.5-0.3-1-0.3-1.5
							c0-0.6,0.1-1.1,0.3-1.5c0.2-0.5,0.5-0.9,0.8-1.2c0.3-0.3,0.7-0.6,1.2-0.8c0.5-0.2,1-0.3,1.5-0.3c0.5,0,1,0.1,1.5,0.3
							c0.5,0.2,0.9,0.5,1.2,0.8c0.3,0.3,0.6,0.7,0.8,1.2C1889.2,664.3,1889.3,664.8,1889.3,665.3z M1888.5,665.4
							c0-0.4-0.1-0.8-0.2-1.2c-0.1-0.4-0.3-0.7-0.6-1c-0.3-0.3-0.6-0.5-0.9-0.7c-0.4-0.2-0.8-0.3-1.3-0.3c-0.5,0-0.9,0.1-1.3,0.3
							c-0.4,0.2-0.7,0.4-0.9,0.7c-0.3,0.3-0.5,0.6-0.6,1c-0.1,0.4-0.2,0.8-0.2,1.2s0.1,0.8,0.2,1.2c0.1,0.4,0.3,0.7,0.6,1
							c0.3,0.3,0.6,0.5,0.9,0.7c0.4,0.2,0.8,0.3,1.3,0.3c0.5,0,0.9-0.1,1.3-0.3c0.4-0.2,0.7-0.4,0.9-0.7c0.3-0.3,0.5-0.6,0.6-1
							C1888.4,666.2,1888.5,665.8,1888.5,665.4z"/>
						<path style="fill:#353535;" d="M1895.5,669.1c-0.5,0-1-0.1-1.3-0.3c-0.3-0.2-0.6-0.4-0.8-0.7c-0.2-0.3-0.3-0.6-0.4-0.9
							c-0.1-0.3-0.1-0.7-0.1-1v-4.5h0.7v4.5c0,0.3,0,0.6,0.1,0.9c0.1,0.3,0.2,0.5,0.3,0.7c0.2,0.2,0.4,0.4,0.6,0.5
							c0.3,0.1,0.6,0.2,0.9,0.2c0.4,0,0.7-0.1,0.9-0.2c0.3-0.1,0.5-0.3,0.6-0.5c0.2-0.2,0.3-0.5,0.3-0.7c0.1-0.3,0.1-0.6,0.1-0.9
							v-4.5h0.7v4.5c0,0.3,0,0.6-0.1,1c-0.1,0.3-0.2,0.6-0.4,0.9c-0.2,0.3-0.5,0.5-0.8,0.7C1896.5,669.1,1896,669.1,1895.5,669.1z"
							/>
						<path style="fill:#353535;" d="M1902.9,669h-0.7v-7.2h2.1c0.4,0,0.7,0,1,0.1c0.3,0.1,0.6,0.2,0.8,0.3c0.2,0.2,0.4,0.4,0.5,0.6
							c0.1,0.2,0.2,0.5,0.2,0.9c0,0.3,0,0.5-0.1,0.7c-0.1,0.2-0.2,0.4-0.4,0.6c-0.2,0.2-0.4,0.3-0.6,0.4c-0.2,0.1-0.5,0.2-0.7,0.2
							l2.1,3.4h-0.9l-2-3.4h-1.2V669z M1902.9,664.9h1.3c0.6,0,1-0.1,1.4-0.3s0.5-0.5,0.5-1c0-0.2,0-0.4-0.1-0.6
							c-0.1-0.2-0.2-0.3-0.4-0.4c-0.2-0.1-0.3-0.2-0.6-0.2c-0.2,0-0.5-0.1-0.7-0.1h-1.3V664.9z"/>
					</g>
				</g>
				<g>
					<g>
						<path style="fill:#353535;" d="M1870.5,683.7l-4.2-6.8h0l0.1,6.8h-2.4v-10.4h2.9l4.2,6.8h0l-0.1-6.8h2.4v10.4H1870.5z"/>
						<path style="fill:#353535;" d="M1885.5,683.7l-0.8-2h-4l-0.8,2h-2.7l4.4-10.4h2.4l4.3,10.4H1885.5z M1882.7,676.1l-1.3,3.6
							h2.6L1882.7,676.1z"/>
						<path style="fill:#353535;" d="M1901.4,683.7l0.1-7.3h0l-2.7,7.3h-1.8l-2.6-7.3h0l0.1,7.3h-2.4v-10.4h3.6l2.4,6.7h0.1l2.3-6.7
							h3.6v10.4H1901.4z"/>
						<path style="fill:#353535;" d="M1909,683.7v-10.4h7v2.1h-4.6v2h4.3v2h-4.3v2.2h4.8v2.1H1909z"/>
					</g>
				</g>
			</g>
			<g>
				<path style="fill:#353535;" d="M1870.2,654l0.8-0.5c0.1-0.1,0.3-0.2,0.4-0.2c0.1,0,0.3-0.1,0.4-0.1c0.1,0,0.2,0,0.4,0.1
					c0.1,0.1,0.2,0.2,0.3,0.3c0.1,0.1,0.1,0.3,0.2,0.4c0,0.1,0,0.2,0,0.4c0,0.1-0.1,0.2-0.2,0.3c-0.1,0.1-0.2,0.2-0.4,0.3l-0.5,0.3
					l0.9,1.3l-0.3,0.2L1870.2,654z M1871.3,655.1l0.5-0.3c0.2-0.2,0.4-0.3,0.4-0.5c0.1-0.2,0-0.3-0.1-0.5c-0.1-0.2-0.3-0.3-0.4-0.3
					c-0.2,0-0.4,0.1-0.6,0.2l-0.5,0.3L1871.3,655.1z"/>
				<path style="fill:#353535;" d="M1873.6,651.9l0.3-0.2l0.7,1.3l1.7-0.8l-0.7-1.3l0.3-0.2l1.5,3l-0.3,0.2l-0.7-1.4l-1.7,0.8
					l0.7,1.4l-0.3,0.2L1873.6,651.9z"/>
				<path style="fill:#353535;" d="M1881.6,650.4c0.1,0.2,0.1,0.5,0.1,0.7c0,0.2-0.1,0.5-0.2,0.7c-0.1,0.2-0.2,0.4-0.4,0.5
					c-0.2,0.2-0.4,0.3-0.6,0.4c-0.2,0.1-0.5,0.1-0.7,0.1c-0.2,0-0.5-0.1-0.7-0.2c-0.2-0.1-0.4-0.2-0.5-0.4c-0.2-0.2-0.3-0.4-0.4-0.6
					c-0.1-0.2-0.1-0.5-0.1-0.7c0-0.2,0.1-0.5,0.2-0.7c0.1-0.2,0.2-0.4,0.4-0.5c0.2-0.2,0.4-0.3,0.6-0.4c0.2-0.1,0.5-0.1,0.7-0.1
					c0.2,0,0.5,0.1,0.7,0.2c0.2,0.1,0.4,0.2,0.5,0.4C1881.4,649.9,1881.6,650.1,1881.6,650.4z M1881.3,650.5
					c-0.1-0.2-0.2-0.4-0.3-0.5c-0.1-0.1-0.3-0.3-0.4-0.4c-0.2-0.1-0.3-0.1-0.5-0.2c-0.2,0-0.4,0-0.6,0.1c-0.2,0.1-0.4,0.2-0.5,0.3
					c-0.1,0.1-0.2,0.3-0.3,0.4c-0.1,0.2-0.1,0.3-0.1,0.5c0,0.2,0,0.4,0.1,0.6c0.1,0.2,0.2,0.4,0.3,0.5c0.1,0.1,0.3,0.3,0.4,0.4
					c0.2,0.1,0.3,0.1,0.5,0.2c0.2,0,0.4,0,0.6-0.1c0.2-0.1,0.4-0.2,0.5-0.3c0.1-0.1,0.2-0.3,0.3-0.4c0.1-0.2,0.1-0.3,0.1-0.5
					C1881.4,650.9,1881.4,650.7,1881.3,650.5z"/>
				<path style="fill:#353535;" d="M1884.6,651.5l-0.3,0.1l-0.6-3l-1.1,0.2l-0.1-0.3l2.6-0.5l0.1,0.3l-1.1,0.2L1884.6,651.5z"/>
				<path style="fill:#353535;" d="M1890.2,649.1c0,0.3,0,0.5-0.1,0.7c-0.1,0.2-0.2,0.4-0.3,0.6c-0.1,0.2-0.3,0.3-0.5,0.4
					c-0.2,0.1-0.4,0.2-0.7,0.2c-0.3,0-0.5,0-0.7-0.1c-0.2-0.1-0.4-0.2-0.6-0.3c-0.2-0.1-0.3-0.3-0.4-0.5c-0.1-0.2-0.2-0.4-0.2-0.7
					c0-0.3,0-0.5,0.1-0.7c0.1-0.2,0.2-0.4,0.3-0.6c0.1-0.2,0.3-0.3,0.5-0.4c0.2-0.1,0.4-0.2,0.7-0.2c0.3,0,0.5,0,0.7,0.1
					c0.2,0.1,0.4,0.2,0.6,0.3c0.2,0.1,0.3,0.3,0.4,0.5C1890.1,648.6,1890.2,648.8,1890.2,649.1z M1889.8,649.1
					c0-0.2-0.1-0.4-0.1-0.6c-0.1-0.2-0.2-0.3-0.3-0.4c-0.1-0.1-0.3-0.2-0.5-0.3c-0.2-0.1-0.4-0.1-0.6-0.1c-0.2,0-0.4,0.1-0.6,0.2
					c-0.2,0.1-0.3,0.2-0.4,0.4c-0.1,0.1-0.2,0.3-0.2,0.5c0,0.2-0.1,0.4-0.1,0.6c0,0.2,0.1,0.4,0.1,0.6c0.1,0.2,0.2,0.3,0.3,0.4
					c0.1,0.1,0.3,0.2,0.5,0.3c0.2,0.1,0.4,0.1,0.6,0.1c0.2,0,0.4-0.1,0.6-0.2c0.2-0.1,0.3-0.2,0.4-0.4c0.1-0.1,0.2-0.3,0.2-0.5
					C1889.8,649.5,1889.8,649.3,1889.8,649.1z"/>
				<path style="fill:#353535;" d="M1894.6,648.1c-0.1-0.1-0.2-0.2-0.4-0.3c-0.2-0.1-0.3-0.1-0.6-0.1c-0.2,0-0.4,0-0.6,0.1
					c-0.2,0.1-0.3,0.2-0.5,0.3c-0.1,0.1-0.2,0.3-0.3,0.5c-0.1,0.2-0.1,0.4-0.1,0.6c0,0.2,0,0.4,0.1,0.6c0.1,0.2,0.1,0.3,0.3,0.5
					c0.1,0.1,0.3,0.3,0.4,0.3c0.2,0.1,0.4,0.1,0.6,0.2c0.2,0,0.4,0,0.5,0c0.2,0,0.3-0.1,0.4-0.1l0.1-1l-0.8,0l0-0.3l1.1,0.1
					l-0.1,1.5c-0.2,0.1-0.4,0.2-0.6,0.2c-0.2,0-0.4,0.1-0.7,0c-0.3,0-0.5-0.1-0.7-0.2c-0.2-0.1-0.4-0.2-0.5-0.4
					c-0.1-0.2-0.3-0.4-0.3-0.6c-0.1-0.2-0.1-0.5-0.1-0.7c0-0.3,0.1-0.5,0.2-0.7c0.1-0.2,0.2-0.4,0.4-0.5c0.2-0.1,0.4-0.3,0.6-0.3
					c0.2-0.1,0.5-0.1,0.7-0.1c0.3,0,0.5,0.1,0.7,0.2c0.2,0.1,0.4,0.2,0.5,0.4L1894.6,648.1z"/>
				<path style="fill:#353535;" d="M1896.8,651.2l-0.3-0.1l0.6-3.3l1,0.2c0.2,0,0.3,0.1,0.4,0.1c0.1,0.1,0.2,0.1,0.3,0.2
					c0.1,0.1,0.2,0.2,0.2,0.3c0,0.1,0,0.3,0,0.4c0,0.1-0.1,0.2-0.1,0.3c-0.1,0.1-0.1,0.2-0.2,0.2c-0.1,0.1-0.2,0.1-0.3,0.1
					c-0.1,0-0.2,0-0.4,0l0.7,1.8l-0.4-0.1l-0.6-1.7l-0.6-0.1L1896.8,651.2z M1897.2,649.4l0.6,0.1c0.3,0.1,0.5,0,0.7,0
					c0.2-0.1,0.3-0.2,0.3-0.4c0-0.1,0-0.2,0-0.3c0-0.1-0.1-0.2-0.1-0.2c-0.1-0.1-0.1-0.1-0.2-0.2c-0.1,0-0.2-0.1-0.3-0.1l-0.6-0.1
					L1897.2,649.4z"/>
				<path style="fill:#353535;" d="M1900.1,651.9l-0.4-0.1l2.4-2.8l0.3,0.1l0.4,3.7l-0.4-0.1l-0.1-1l-1.7-0.5L1900.1,651.9z
					 M1900.9,650.9l1.4,0.4l-0.2-1.9L1900.9,650.9z"/>
				<path style="fill:#353535;" d="M1905.5,650.2l0.9,0.4c0.2,0.1,0.3,0.2,0.4,0.2c0.1,0.1,0.2,0.2,0.3,0.3c0.1,0.1,0.1,0.2,0.1,0.4
					c0,0.1,0,0.3-0.1,0.4c-0.1,0.1-0.1,0.3-0.2,0.3c-0.1,0.1-0.2,0.1-0.3,0.2c-0.1,0-0.3,0-0.4,0c-0.1,0-0.3-0.1-0.5-0.1l-0.6-0.2
					l-0.6,1.4l-0.3-0.1L1905.5,650.2z M1905.2,651.8l0.5,0.2c0.2,0.1,0.5,0.1,0.6,0.1c0.2,0,0.3-0.2,0.4-0.3c0.1-0.2,0.1-0.4,0-0.5
					c-0.1-0.1-0.3-0.3-0.5-0.4l-0.5-0.2L1905.2,651.8z"/>
				<path style="fill:#353535;" d="M1909.2,652l0.3,0.2l-0.8,1.3l1.6,1l0.8-1.3l0.3,0.2l-1.8,2.9l-0.3-0.2l0.8-1.4l-1.6-1l-0.8,1.4
					l-0.3-0.2L1909.2,652z"/>
				<path style="fill:#353535;" d="M1912,657.9l-0.3-0.2l0.9-1.2l0.2-2.3l0.3,0.3l-0.2,1.9l1.8-0.7l0.3,0.2l-2.2,0.7L1912,657.9z"/>
			</g>
			<g>
				<path style="fill:#353535;" d="M1874.8,696.4c-0.1-0.1-0.2-0.2-0.3-0.3c-0.1-0.1-0.3-0.1-0.4-0.1c-0.1,0-0.2,0-0.3,0
					c-0.1,0-0.2,0.1-0.2,0.1c-0.1,0.1-0.1,0.1-0.2,0.2c0,0.1-0.1,0.2-0.1,0.3c0,0.1,0,0.2,0.1,0.3c0,0.1,0.1,0.1,0.2,0.2
					c0.1,0.1,0.2,0.1,0.2,0.1c0.1,0,0.2,0.1,0.3,0.1c0.1,0,0.2,0.1,0.4,0.1c0.1,0,0.2,0.1,0.3,0.2c0.1,0.1,0.2,0.2,0.2,0.3
					c0.1,0.1,0.1,0.3,0.1,0.4c0,0.2,0,0.3-0.1,0.5c-0.1,0.1-0.2,0.2-0.3,0.3c-0.1,0.1-0.2,0.1-0.4,0.2c-0.1,0-0.3,0.1-0.4,0.1
					c-0.1,0-0.2,0-0.3,0c-0.1,0-0.2-0.1-0.3-0.1c-0.1,0-0.2-0.1-0.3-0.2c-0.1-0.1-0.2-0.1-0.2-0.2l0.3-0.2c0.1,0.1,0.2,0.2,0.3,0.3
					c0.1,0.1,0.3,0.1,0.5,0.1c0.1,0,0.2,0,0.3,0c0.1,0,0.2-0.1,0.3-0.1c0.1-0.1,0.1-0.1,0.2-0.2c0-0.1,0.1-0.2,0.1-0.3
					c0-0.1,0-0.2-0.1-0.3c0-0.1-0.1-0.1-0.2-0.2c-0.1-0.1-0.2-0.1-0.3-0.1c-0.1,0-0.2-0.1-0.3-0.1c-0.1,0-0.2-0.1-0.3-0.1
					c-0.1,0-0.2-0.1-0.3-0.2c-0.1-0.1-0.2-0.2-0.2-0.3c-0.1-0.1-0.1-0.2-0.1-0.4c0-0.2,0-0.3,0.1-0.4c0.1-0.1,0.2-0.2,0.3-0.3
					c0.1-0.1,0.2-0.1,0.4-0.2s0.3-0.1,0.4-0.1c0.2,0,0.4,0,0.6,0.1c0.2,0.1,0.3,0.2,0.4,0.3L1874.8,696.4z"/>
				<path style="fill:#353535;" d="M1877.3,699.3h-0.4v-3.5h0.4V699.3z"/>
				<path style="fill:#353535;" d="M1881.7,698.8L1881.7,698.8l0-3h0.4v3.5h-0.4l-2.1-3h0v3h-0.4v-3.5h0.4L1881.7,698.8z"/>
				<path style="fill:#353535;" d="M1887,698.8c-0.1,0.1-0.1,0.2-0.2,0.3c-0.1,0.1-0.2,0.2-0.3,0.2c-0.1,0.1-0.2,0.1-0.4,0.1
					c-0.1,0-0.3,0.1-0.4,0.1c-0.3,0-0.5,0-0.7-0.1c-0.2-0.1-0.4-0.2-0.6-0.4c-0.2-0.2-0.3-0.4-0.4-0.6c-0.1-0.2-0.1-0.5-0.1-0.7
					c0-0.3,0-0.5,0.1-0.7c0.1-0.2,0.2-0.4,0.4-0.6c0.2-0.2,0.4-0.3,0.6-0.4c0.2-0.1,0.5-0.1,0.7-0.1c0.1,0,0.3,0,0.4,0
					c0.1,0,0.2,0.1,0.4,0.1c0.1,0,0.2,0.1,0.3,0.2c0.1,0.1,0.2,0.1,0.2,0.2l-0.3,0.2c0-0.1-0.1-0.1-0.1-0.2
					c-0.1-0.1-0.1-0.1-0.2-0.2c-0.1,0-0.2-0.1-0.3-0.1c-0.1,0-0.2,0-0.3,0c-0.2,0-0.4,0-0.6,0.1c-0.2,0.1-0.3,0.2-0.5,0.3
					c-0.1,0.1-0.2,0.3-0.3,0.5c-0.1,0.2-0.1,0.4-0.1,0.6c0,0.2,0,0.4,0.1,0.6c0.1,0.2,0.2,0.3,0.3,0.5c0.1,0.1,0.3,0.3,0.5,0.3
					c0.2,0.1,0.4,0.1,0.6,0.1c0.2,0,0.4,0,0.6-0.1c0.2-0.1,0.3-0.2,0.5-0.4L1887,698.8z"/>
				<path style="fill:#353535;" d="M1889,699h1.9v0.3h-2.3v-3.5h2.2v0.3h-1.8v1.2h1.7v0.3h-1.7V699z"/>
				<path style="fill:#353535;" d="M1896.1,699.3h-0.4v-3.1l-0.6,0.5l-0.2-0.2l0.9-0.7h0.3V699.3z"/>
				<path style="fill:#353535;" d="M1900.1,697.8L1900.1,697.8c-0.1,0-0.1,0.1-0.2,0.1c-0.1,0-0.2,0-0.3,0c-0.2,0-0.3,0-0.4-0.1
					s-0.2-0.1-0.3-0.2c-0.1-0.1-0.2-0.2-0.2-0.3c-0.1-0.1-0.1-0.3-0.1-0.4c0-0.2,0-0.3,0.1-0.5c0.1-0.1,0.1-0.3,0.2-0.4
					c0.1-0.1,0.2-0.2,0.4-0.2c0.1-0.1,0.3-0.1,0.5-0.1s0.3,0,0.5,0.1c0.1,0.1,0.3,0.1,0.4,0.2c0.1,0.1,0.2,0.2,0.2,0.4
					c0.1,0.1,0.1,0.3,0.1,0.5c0,0.2,0,0.4-0.1,0.5c-0.1,0.2-0.1,0.3-0.2,0.4l-1,1.6h-0.4L1900.1,697.8z M1900.5,696.8
					c0-0.1,0-0.2-0.1-0.3c0-0.1-0.1-0.2-0.2-0.3c-0.1-0.1-0.2-0.1-0.2-0.2c-0.1,0-0.2-0.1-0.3-0.1c-0.1,0-0.2,0-0.3,0.1
					c-0.1,0-0.2,0.1-0.2,0.2c-0.1,0.1-0.1,0.2-0.2,0.3c0,0.1-0.1,0.2-0.1,0.3c0,0.1,0,0.2,0.1,0.3c0,0.1,0.1,0.2,0.2,0.3
					c0.1,0.1,0.2,0.1,0.2,0.2c0.1,0,0.2,0.1,0.3,0.1c0.1,0,0.2,0,0.3-0.1c0.1,0,0.2-0.1,0.2-0.2c0.1-0.1,0.1-0.2,0.2-0.3
					C1900.5,697,1900.5,696.9,1900.5,696.8z"/>
				<path style="fill:#353535;" d="M1904,697.8L1904,697.8c-0.1,0-0.1,0.1-0.2,0.1c-0.1,0-0.2,0-0.3,0c-0.2,0-0.3,0-0.4-0.1
					c-0.1-0.1-0.2-0.1-0.3-0.2c-0.1-0.1-0.2-0.2-0.2-0.3c-0.1-0.1-0.1-0.3-0.1-0.4c0-0.2,0-0.3,0.1-0.5c0.1-0.1,0.1-0.3,0.2-0.4
					c0.1-0.1,0.2-0.2,0.4-0.2c0.1-0.1,0.3-0.1,0.5-0.1c0.2,0,0.3,0,0.5,0.1c0.1,0.1,0.3,0.1,0.4,0.2c0.1,0.1,0.2,0.2,0.2,0.4
					c0.1,0.1,0.1,0.3,0.1,0.5c0,0.2,0,0.4-0.1,0.5c-0.1,0.2-0.1,0.3-0.2,0.4l-1,1.6h-0.4L1904,697.8z M1904.4,696.8
					c0-0.1,0-0.2-0.1-0.3c0-0.1-0.1-0.2-0.2-0.3c-0.1-0.1-0.2-0.1-0.2-0.2c-0.1,0-0.2-0.1-0.3-0.1c-0.1,0-0.2,0-0.3,0.1
					c-0.1,0-0.2,0.1-0.2,0.2c-0.1,0.1-0.1,0.2-0.2,0.3c0,0.1-0.1,0.2-0.1,0.3c0,0.1,0,0.2,0.1,0.3c0,0.1,0.1,0.2,0.2,0.3
					c0.1,0.1,0.2,0.1,0.2,0.2c0.1,0,0.2,0.1,0.3,0.1s0.2,0,0.3-0.1c0.1,0,0.2-0.1,0.2-0.2c0.1-0.1,0.1-0.2,0.2-0.3
					C1904.4,697,1904.4,696.9,1904.4,696.8z"/>
				<path style="fill:#353535;" d="M1908.4,696.1h-1.5l0,1.1c0.1,0,0.2,0,0.2-0.1c0.1,0,0.2,0,0.2,0c0.2,0,0.3,0,0.5,0.1
					c0.1,0.1,0.3,0.1,0.4,0.2c0.1,0.1,0.2,0.2,0.2,0.4c0.1,0.1,0.1,0.3,0.1,0.4c0,0.2,0,0.3-0.1,0.5c-0.1,0.1-0.1,0.3-0.2,0.4
					c-0.1,0.1-0.2,0.2-0.4,0.2c-0.1,0.1-0.3,0.1-0.5,0.1c-0.3,0-0.5-0.1-0.6-0.2c-0.2-0.1-0.3-0.3-0.4-0.5l0.3-0.1
					c0.1,0.1,0.2,0.3,0.3,0.3c0.1,0.1,0.3,0.1,0.4,0.1c0.1,0,0.2,0,0.3-0.1c0.1,0,0.2-0.1,0.3-0.2s0.1-0.2,0.2-0.3
					c0-0.1,0.1-0.2,0.1-0.3c0-0.1,0-0.2-0.1-0.4c0-0.1-0.1-0.2-0.2-0.3c-0.1-0.1-0.2-0.1-0.3-0.2c-0.1,0-0.2-0.1-0.3-0.1
					s-0.3,0-0.4,0.1c-0.1,0-0.2,0.1-0.4,0.1l0-1.8h1.8V696.1z"/>
			</g>
			<g>
				<rect x="1878.2" y="688.8" style="fill:#353535;" width="26.1" height="0.7"/>
			</g>
		</g>
	</g>
	<g>
		<text transform="matrix(1 0 0 1 1363.6973 745.2916)" style="fill:#353535; font-family:'Raleway-Black'; font-size:18.7255px;">CREATIVITY</text>
		
			<text transform="matrix(1 0 0 1 1339.6445 768.5748)" style="fill:#353535; font-family:'Raleway-Regular'; font-size:18.7255px; letter-spacing:3;">FILMMAKERS</text>
	</g>
	
		<text transform="matrix(1 0 0 1 1321.9658 948.2418)" style="fill:#353535; font-family:'Raleway-Bold'; font-size:19.2809px; letter-spacing:3;">POINT OF VIEW</text>
	
		<text transform="matrix(1 0 0 1 1363.5186 962.8589)" style="fill:#353535; font-family:'Raleway-Light'; font-size:7.2932px; letter-spacing:1;">PHOTOGRAPHY STUDIO</text>
	<g>
		<g>
			<g>
				<g>
					<g>
						<path style="fill:#353535;" d="M361.6,1219.3c-21.7,0-43.7-4.6-64.6-14.2c-37.6-17.3-66.2-48.3-80.6-87.1
							c-14.4-38.9-12.7-81,4.6-118.6c35.8-77.7,128-111.7,205.7-76c37.6,17.3,66.2,48.3,80.6,87.1c14.4,38.9,12.7,81-4.6,118.6
							C476.6,1185.8,420.3,1219.3,361.6,1219.3z M362.1,934.6c-49.1,0-96.1,28-117.9,75.4c-14.5,31.4-15.8,66.7-3.8,99.1
							c12,32.5,35.9,58.3,67.4,72.8c64.9,29.9,142,1.4,171.9-63.5c14.5-31.4,15.8-66.7,3.8-99.1c-12-32.5-35.9-58.3-67.4-72.8
							C398.6,938.5,380.2,934.6,362.1,934.6z"/>
					</g>
				</g>
				<g>
					<path style="fill:#353535;" d="M255.6,1010.6c-5.1,10.1-8.8,21.1-10.8,32.8c-5.1,29,0.7,57.5,14.5,81.1l83.9-98.5L255.6,1010.6
						z"/>
					<path style="fill:#353535;" d="M356.4,944.6c-41.2,2.1-78.3,25.5-98.2,61l128.1,22.6L356.4,944.6z"/>
					<path style="fill:#353535;" d="M469.8,1117.9c5.1-10.1,8.8-21.1,10.8-32.8c5.1-29-0.7-57.4-14.4-81.1l-83.9,98.4L469.8,1117.9z
						"/>
					<path style="fill:#353535;" d="M463.3,999.3c-17.4-27-45.6-46.9-79.8-53c-7.2-1.3-14.4-1.9-21.5-1.8l43.7,122.3L463.3,999.3z"
						/>
					<path style="fill:#353535;" d="M262.1,1129.3c17.5,27,45.6,46.9,79.8,52.9c7.7,1.4,15.3,1.9,22.9,1.8l-45-122.3L262.1,1129.3z"
						/>
					<path style="fill:#353535;" d="M370.3,1183.8c40.7-2.6,77.2-25.8,96.9-61l-127.6-22.5L370.3,1183.8z"/>
				</g>
			</g>
			<g>
				<g>
					<path style="fill:#353535;" d="M688.1,1064.3h-1.2c-337.5-385.2-630.4-24.6-649.6,0h-1c0.2,0.2,0.4,0.4,0.5,0.6
						c-0.4,0.5-0.5,0.7-0.5,0.7h1.2c337.5,385.2,630.4,24.6,649.6,0h1c-0.2-0.2-0.4-0.4-0.5-0.6
						C687.9,1064.5,688.1,1064.3,688.1,1064.3z M649.5,1065.5h-0.9c-16.9,21.6-275.2,339.6-572.8,0h-1c0,0,0.2-0.2,0.5-0.6
						c-0.2-0.2-0.3-0.4-0.5-0.5h0.9c16.9-21.6,275.2-339.6,572.8,0h1c0,0-0.2,0.2-0.5,0.6C649.2,1065.2,649.3,1065.3,649.5,1065.5z"
						/>
					<path style="fill:#353535;" d="M360.6,1244.7c-112.1,0-221.2-59.4-324.2-176.8h-4.7l2.2-2.9l-2.6-3h4.9
						c16.9-21.3,142.1-171.8,318.7-176.7c115.3-3.1,227.3,56.2,333,176.7h4.7l-2.2,2.9l2.6,3h-4.9
						c-16.9,21.3-142.1,171.8-318.7,176.7C366.5,1244.6,363.5,1244.7,360.6,1244.7z M39.8,1064.8
						c104.8,119.4,215.7,178.4,329.5,175.2c174.5-4.8,298.5-153.7,315.3-174.9C579.7,945.7,468.8,886.7,355,889.9
						C180.5,894.7,56.5,1043.6,39.8,1064.8z M360.8,1223.7c-98.9,0-195.1-52.4-286-155.9h-4.6l2.1-2.8l-2.1-2.4l4.3-0.5
						c15.1-19.1,125.5-151.5,281.2-155.8c101.7-2.8,200.5,49.6,293.8,155.8h4.6l-2.1,2.8l2,2.4l-4.3,0.5
						c-15.1,19.1-125.5,151.5-281.2,155.8C366,1223.6,363.4,1223.7,360.8,1223.7z M78.3,1064.8c92.3,105.1,189.9,157,290.2,154.2
						c153.3-4.2,262.3-134.6,277.6-153.9C553.7,960,456.1,908.1,355.9,910.9C202.6,915.1,93.6,1045.5,78.3,1064.8z"/>
				</g>
			</g>
		</g>
	</g>
	<g>
		<g>
			
				<text transform="matrix(1 0 0 1 1550.4698 748.9835)" style="fill:#353535; font-family:'CaviarDreams-Bold'; font-size:22.8964px;">LOVEPHOTOGRAPHY</text>
			<text transform="matrix(1 0 0 1 1610.9352 769.793)" style="fill:#353535; font-family:'CaviarDreams'; font-size:13.2822px;">STUDIO CREATIVE</text>
		</g>
		<g>
			<path style="fill:#353535;" d="M1682.8,616.7c3.5,4.4,8.7,6.9,14.3,6.9h21.1c6,0,10.8,4.9,10.8,10.8h3.3
				c0-7.8-6.3-14.2-14.2-14.2h-21.1c-4.6,0-8.8-2-11.7-5.6c-3.5-4.4-8.7-6.9-14.3-6.9h-7v3.3h7
				C1675.7,611,1679.9,613.1,1682.8,616.7z"/>
			<path style="fill:#353535;" d="M1700.6,653l0-0.2c0.3-6.9-3-12.1-8.9-14.2c-6.7-2.4-16.9-0.4-24.1,7.8c-2.6-2.7-9-8.6-16.8-9
				c-1.1-0.1-2.1,0-3.2,0.2h-45.3c-1.8,0-3.3-1.5-3.3-3.3l0,0h0c0-6,4.9-10.8,10.8-10.8h6.5h9.9h4.7c5.5,0,10.8-2.4,14.2-6.7
				c2.9-3.7,7.2-5.8,11.8-5.8h7v-3.3h-6.9c-5.5,0-10.9,2.3-14.3,6.7c-2.7,3.4-6.6,5.5-10.9,5.7c0.6-1.2,0.9-2.6,0.7-4
				c-0.5-3.2-3.3-5.5-6.6-5.5h-9.5c-3.3,0-6.2,2.3-6.6,5.6c-0.2,1.5,0.1,2.8,0.7,4h-0.9c-7.8,0-14.2,6.3-14.2,14.2v5.8h0.2v0.8h44.1
				c-0.7,0.6-1.4,1.2-2.1,1.8c-2.4,2.4-3.5,5.3-3.3,8.8c1,15.6,28.9,37.4,32.1,39.8l0.9,0.7v0h58.6c1.5,0,2.7,1.2,2.7,2.7v7.4
				c0,1.1-0.9,2-2,2h-126c-1.1,0-2-0.9-2-2v-10.2h-3.3v10.2c0,2.9,2.4,5.3,5.3,5.3h126c2.9,0,5.3-2.4,5.3-5.3v-10.2l0,0
				c0-1.5-1.2-2.7-2.7-2.7h-58.4C1679.9,682.3,1698.5,665.9,1700.6,653z M1613.3,617.1c0-1.7,1.4-3.1,3.1-3.1h9.9
				c1.7,0,3.1,1.4,3.1,3.1c0,1.7-1.4,3.1-3.1,3.1h-9.9C1614.7,620.2,1613.3,618.8,1613.3,617.1z M1637.5,651.4
				c-0.2-2.7,0.6-4.8,2.4-6.6c3.1-3,6.4-4.5,10-4.5c0.2,0,0.4,0,0.7,0c8.6,0.4,15.9,9.2,15.9,9.3l1.1,1.4l1.1-1.4
				c4.7-6.1,13.9-11.1,21.9-8.2c4.7,1.7,7.2,5.7,7,11.3c-1.7,10.4-16.5,25.2-30.1,35.9C1662.8,684.7,1638.4,664.8,1637.5,651.4z"/>
		</g>
	</g>
	<g>
		<g>
			<path style="fill:#353535;" d="M1616.3,815.8c-0.7-1.2-1.7-1.9-2.8-1.9h-7.7c-1.2,0-2.3,0.9-3,2.3l-1.3,2.8h16.6L1616.3,815.8z"
				/>
			<g>
				<g>
					<path style="fill:#353535;" d="M1671.3,852.8c-1.2,2.3-2,4.9-2.5,7.6c-1.2,6.7,0.2,13.2,3.3,18.7l19.3-22.7L1671.3,852.8z"/>
					<path style="fill:#353535;" d="M1694.5,837.7c-9.5,0.5-18,5.9-22.6,14l29.5,5.2L1694.5,837.7z"/>
					<path style="fill:#353535;" d="M1720.6,877.5c1.2-2.3,2-4.9,2.5-7.6c1.2-6.7-0.2-13.2-3.3-18.6l-19.3,22.6L1720.6,877.5z"/>
					<path style="fill:#353535;" d="M1719.1,850.2c-4-6.2-10.5-10.8-18.4-12.2c-1.7-0.3-3.3-0.4-4.9-0.4l10.1,28.1L1719.1,850.2z"/>
					<path style="fill:#353535;" d="M1672.8,880.2c4,6.2,10.5,10.8,18.3,12.2c1.8,0.3,3.5,0.4,5.3,0.4l-10.4-28.1L1672.8,880.2z"/>
					<path style="fill:#353535;" d="M1697.7,892.7c9.4-0.6,17.8-5.9,22.3-14l-29.4-5.2L1697.7,892.7z"/>
				</g>
			</g>
			<g>
				<path style="fill:#353535;" d="M1724,911.6h-55.3c-5.9,0-10.7-4.8-10.7-10.7v-7c0-0.8,0.7-1.5,1.5-1.5c0.8,0,1.5,0.7,1.5,1.5v7
					c0,4.3,3.5,7.7,7.7,7.7h55.3c4.3,0,7.7-3.5,7.7-7.7v-68.3c0-4.3-3.5-7.7-7.7-7.7h-51.5c-3.4,0-6.5,2.3-7.4,5.6l-20.1,70.4
					c-1.8,6.3-7.7,10.7-14.2,10.7H1603c-8.2,0-14.8-6.6-14.8-14.8v-59.3c0-8.2,6.6-14.8,14.8-14.8h48.3c0.8,0,1.5,0.7,1.5,1.5
					c0,0.8-0.7,1.5-1.5,1.5H1603c-6.5,0-11.8,5.3-11.8,11.8v59.3c0,6.5,5.3,11.8,11.8,11.8h27.7c5.2,0,9.9-3.5,11.3-8.6l20.1-70.4
					c1.3-4.6,5.5-7.8,10.3-7.8h51.5c5.9,0,10.7,4.8,10.7,10.7v68.3C1734.7,906.7,1729.9,911.6,1724,911.6z"/>
			</g>
			<path style="fill:#353535;" d="M1723.7,838c0,1.9-1.5,3.4-3.4,3.4s-3.4-1.5-3.4-3.4c0-1.9,1.5-3.4,3.4-3.4
				S1723.7,836.1,1723.7,838z"/>
		</g>
		<g>
			
				<text transform="matrix(1 0 0 1 1553.4059 944.6168)" style="fill:#353535; font-family:'Raleway-Bold'; font-size:19.2809px; letter-spacing:3;">CREATIVE PHOTO</text>
		</g>
		<g>
			
				<text transform="matrix(1 0 0 1 1643.7242 958.2398)" style="fill:#353535; font-family:'Raleway-Light'; font-size:7.2932px; letter-spacing:1;">STUDIO</text>
		</g>
	</g>
	<g>
		<g>
			<g>
				<path style="fill:#353535;" d="M1890.1,922.1c-30.9,0-56.1-25.2-56.1-56.1c0-30.9,25.2-56.1,56.1-56.1
					c30.9,0,56.1,25.2,56.1,56.1C1946.1,896.9,1921,922.1,1890.1,922.1z M1890.1,813.9c-28.7,0-52.1,23.4-52.1,52.1
					c0,28.7,23.4,52.1,52.1,52.1c28.7,0,52.1-23.4,52.1-52.1C1942.1,837.3,1918.8,813.9,1890.1,813.9z"/>
			</g>
			<g>
				<path style="fill:#353535;" d="M1890.1,944.9c-43.5,0-78.9-35.4-78.9-78.9c0-43.5,35.4-78.9,78.9-78.9
					c43.5,0,78.9,35.4,78.9,78.9C1969,909.5,1933.6,944.9,1890.1,944.9z M1890.1,791.1c-41.3,0-74.9,33.6-74.9,74.9
					c0,41.3,33.6,74.9,74.9,74.9c41.3,0,74.9-33.6,74.9-74.9C1965,824.7,1931.4,791.1,1890.1,791.1z"/>
			</g>
			<path id="SVGID_x5F_1_x5F_" style="fill:none;" d="M1951.2,865.3c0,33.8-27.4,61.2-61.2,61.2s-61.2-27.4-61.2-61.2
				c0-33.8,27.4-61.2,61.2-61.2S1951.2,831.6,1951.2,865.3z"/>
			<text>			<textPath  xlink:href="#SVGID_x5F_1_x5F_" startOffset="106.2613%">
<tspan  style="fill:#353535; font-family:'Cormorant-Bold'; font-size:10.3275px; letter-spacing:220;">YOUR COMPANY NAME CREATIVE PHOTOGRAPHY STUDIO</tspan>			</textPath>
</text>
		</g>
		<g>
			<g>
				<path style="fill:#353535;" d="M1918,841.4c-0.3-0.5-0.7-0.7-1.2-0.7h-3.4c-0.5,0-1,0.3-1.3,0.9l-0.6,1.1h7.3L1918,841.4z"/>
				<path style="fill:#353535;" d="M1866.3,841.4c-0.3-0.5-0.7-0.7-1.1-0.7h-3.1c-0.5,0-0.9,0.3-1.2,0.9l-0.5,1.1h6.7L1866.3,841.4z
					"/>
				<path style="fill:#353535;" d="M1920,848.3c0-1.1-0.9-2-2-2s-2,0.9-2,2c0,1.1,0.9,2,2,2S1920,849.3,1920,848.3z"/>
			</g>
			<path style="fill:#353535;" d="M1922,843.3h-12.2c-0.5,0-1-0.3-1.2-0.7l0,0l-2.5-5.4c-1.4-3-4.5-5-7.8-5h-16.1
				c-3.2,0-6.1,1.7-7.6,4.6l-2.9,5.5c0,0.1-0.1,0.1-0.1,0.2c-0.4,0.5-0.9,0.8-1.5,0.8h-11.9c-1.2,0-2.1,0.9-2.1,2.1v37.9
				c0,2,1.7,3.7,3.7,3.7h23.3v-1.7h-23.3c-1.1,0-2-0.9-2-2v-37.9c0-0.2,0.2-0.4,0.4-0.4h12.3c0.5,0,0.9-0.2,1.2-0.5l1.3-1.1
				c0.2-0.2,0.3-0.3,0.4-0.6l2.8-5.3c1.2-2.2,3.5-3.6,6.1-3.6h16.1c2.7,0,5.1,1.6,6.2,4l2.5,5.4l0,0l0.5,1c0.2,0.4,0.6,0.7,1.1,0.7
				l1,0.1h12.4c0.2,0,0.4,0.2,0.4,0.4v37.9c0,1.1-0.9,2-2,2h-27v1.7h27c2,0,3.7-1.7,3.7-3.7v-37.9
				C1924.2,844.2,1923.2,843.3,1922,843.3z"/>
			<g>
				<g>
					
						<ellipse transform="matrix(0.2163 -0.9763 0.9763 0.2163 637.4977 2522.4529)" style="fill:#353535;" cx="1890.1" cy="864.1" rx="23" ry="23"/>
					<path style="fill:#353535;" d="M1890.1,887.8c-13.1,0-23.7-10.6-23.7-23.7c0-13.1,10.6-23.7,23.7-23.7
						c13.1,0,23.7,10.6,23.7,23.7C1913.7,877.2,1903.1,887.8,1890.1,887.8z M1890.1,841.7c-12.4,0-22.4,10.1-22.4,22.4
						c0,12.4,10.1,22.4,22.4,22.4c12.4,0,22.4-10.1,22.4-22.4C1912.5,851.8,1902.4,841.7,1890.1,841.7z"/>
				</g>
				
					<ellipse transform="matrix(0.2317 -0.9728 0.9728 0.2317 611.5751 2502.5513)" style="fill:#FFFFFF;" cx="1890.1" cy="864.1" rx="19.4" ry="19.4"/>
			</g>
		</g>
	</g>
	<g>
		<g>
			<g>
				
					<text transform="matrix(1 0 0 1 1378.2748 1145.698)" style="fill:#353535; font-family:'Raleway-Black'; font-size:18.7255px;">VINTAGE</text>
				
					<text transform="matrix(1 0 0 1 1328.1935 1168.9812)" style="fill:#353535; font-family:'Raleway-Regular'; font-size:18.7255px; letter-spacing:3;">PHOTOGRAPHY</text>
			</g>
		</g>
	</g>
	<g>
		<g>
			<g>
				<g>
					<path style="fill:#FFFFFF;" d="M687.1,645.2H427.7l-1.2-0.3c-72-15.9-167.6-52.5-214.3-136.8c-27.1-48.8-25.3-91.2-25-96.6
						c0.2-78.5,64.2-142.3,142.7-142.3c78.7,0,142.7,64,142.7,142.7c0,6.2-5.1,11.3-11.3,11.3c-6.2,0-11.3-5.1-11.3-11.3
						c0-66.2-53.9-120.1-120.1-120.1S209.8,345.7,209.8,412l0,0.9c-0.5,6.4-9.6,158.4,220.4,209.7h256.9c48.9,0,88.6-39.8,88.6-88.6
						V335.7c0-51.3-41.8-93.1-93.1-93.1H557.1c-30.9,0-59.9-12-81.8-33.9l-4.1-4.1c-17.6-17.6-41-27.3-65.8-27.3H295.9
						c-25.3,0-49.9,10.5-67.4,28.9c-21.7,22.8-52.3,35.9-83.7,35.9h-26.9c-51.2,0-93,41.7-93.1,92.9l-0.5,194.5
						c-0.1,23.7,9.1,46,25.9,62.8c16.8,16.8,39,26,62.8,26h174.8c6.2,0,11.3,5.1,11.3,11.3c0,6.2-5.1,11.3-11.3,11.3H112.9
						c-29.8,0-57.7-11.6-78.7-32.7c-21-21.1-32.6-49.1-32.5-78.8L2.2,335c0.1-63.6,52-115.4,115.7-115.4h26.9
						c25.3,0,49.9-10.5,67.4-28.9c21.7-22.8,52.3-35.9,83.7-35.9h109.6c30.9,0,59.9,12,81.8,33.9l4.1,4.1
						c17.6,17.6,41,27.3,65.8,27.3h125.5c63.8,0,115.7,51.9,115.7,115.7V534C798.3,595.3,748.4,645.2,687.1,645.2z"/>
				</g>
				<path style="fill:#FFFFFF;" d="M328.4,543.3"/>
			</g>
			<path style="fill:#FFFFFF;" d="M382.8,328.3c20.7,11.7,65.9,47.9,45.4,133c0,0,0-82.8-55.1-116.1c-4.2-2.5-5.9-7.7-4-12.2l0,0
				C371.4,327.6,377.8,325.4,382.8,328.3z"/>
		</g>
	</g>
	<g>
		<g>
			<g>
				<g>
					
						<text transform="matrix(1 0 0 1 1830.3289 1152.3899)" style="fill:#353535; font-family:'CaviarDreams-Bold'; font-size:22.8964px;">BOXPHOTO</text>
					
						<text transform="matrix(1 0 0 1 1840.6077 1173.1995)" style="fill:#353535; font-family:'CaviarDreams'; font-size:13.2822px;">STUDIO CREATIVE</text>
				</g>
			</g>
		</g>
		<g>
			<g>
				<path style="fill:#353535;" d="M1893.8,1121c-39.1,0-70.9-31.8-70.9-70.9s31.8-70.9,70.9-70.9c39.1,0,70.9,31.8,70.9,70.9
					S1932.8,1121,1893.8,1121z M1893.8,987.2c-34.7,0-62.9,28.2-62.9,62.9c0,34.7,28.2,62.9,62.9,62.9c34.7,0,62.9-28.2,62.9-62.9
					C1956.6,1015.5,1928.4,987.2,1893.8,987.2z"/>
			</g>
			<g>
				<path style="fill:#353535;" d="M1924.4,1026.9h-14.6c-1.1-3-4-5.1-7.3-5.1H1885c-3.4,0-6.2,2.1-7.3,5.1h-14.6
					c-4.3,0-7.9,3.5-7.9,7.9v32.1c0,4.3,3.5,7.9,7.9,7.9h18.3c-0.3,0.5-0.4,1-0.4,1.6c0,1.7,1.4,3.1,3.1,3.1h1.4l-19.8,30.8
					c-1.4,2.2,0.2,5.2,2.8,5.2h0.1c1.1,0,2.2-0.6,2.8-1.5l19.2-30v28c0,1.9,1.5,3.4,3.4,3.4c1.9,0,3.4-1.5,3.4-3.4v-28.4l19.4,30.3
					c0.6,1,1.7,1.5,2.8,1.5h0.1c2.7,0,4.3-2.9,2.8-5.2l-19.8-30.8h0.7c1.7,0,3.1-1.4,3.1-3.1c0-0.6-0.2-1.1-0.4-1.6h18.3
					c4.3,0,7.9-3.5,7.9-7.9v-32.1C1932.3,1030.4,1928.8,1026.9,1924.4,1026.9z M1896.6,1034.8c4.6,0.8,8.4,3.5,10.8,7.2l-7.8,9.1
					l-5.9-16.5C1894.6,1034.5,1895.6,1034.6,1896.6,1034.8z M1892.9,1034.6l4,11.3l-17.3-3.1
					C1882.3,1038,1887.3,1034.8,1892.9,1034.6z M1877.8,1047.9c0.3-1.6,0.8-3.1,1.5-4.4l11.8,2.1l-11.3,13.3
					C1877.9,1055.7,1877.1,1051.8,1877.8,1047.9z M1890.9,1066.7c-4.6-0.8-8.4-3.5-10.8-7.1l7.8-9.1l6.1,16.5
					C1893,1066.9,1892,1066.8,1890.9,1066.7z M1894.8,1066.9l-4.2-11.3l17.2,3C1905.2,1063.4,1900.3,1066.5,1894.8,1066.9z
					 M1909.7,1053.5c-0.3,1.6-0.8,3.1-1.5,4.4l-11.8-2.1l11.3-13.3C1909.6,1045.8,1910.4,1049.6,1909.7,1053.5z"/>
			</g>
		</g>
	</g>
	<g>
		<g>
			<g>
				<g>
					
						<text transform="matrix(1 0 0 1 1573.8579 1152.3899)" style="fill:#353535; font-family:'CaviarDreams-Bold'; font-size:22.8964px;">FILMMAKINGLIFE</text>
					
						<text transform="matrix(1 0 0 1 1610.9348 1173.1995)" style="fill:#353535; font-family:'CaviarDreams'; font-size:13.2822px;">STUDIO CREATIVE</text>
				</g>
			</g>
		</g>
		<g>
			<path style="fill:#353535;" d="M1720.7,1099.4H1628c-2.3,0-4.2-1.9-4.2-4.2v-55.5c0-2.3,1.9-4.2,4.2-4.2h92.7
				c2.3,0,4.2,1.9,4.2,4.2v55.5C1724.9,1097.5,1723,1099.4,1720.7,1099.4z"/>
			<path style="fill:#353535;" d="M1618.8,1084.9l-25.2,8c-1.9,0.6-3.8-0.8-3.8-2.8v-46.7c0-2,1.9-3.4,3.8-2.8l25.4,8.1
				c1.2,0.4,2.1,1.5,2.1,2.8l-0.2,30.5C1620.8,1083.4,1620,1084.5,1618.8,1084.9z"/>
			<path style="fill:#353535;" d="M1729.3,1038.2l5.4-1.7c1.9-0.6,3.8,0.8,3.8,2.7v11.7c0,2-1.9,3.3-3.8,2.7l-5.4-1.7
				c-1.2-0.4-2-1.5-2-2.8l0.1-8.3C1727.3,1039.7,1728.1,1038.6,1729.3,1038.2z"/>
			<g>
				<path style="fill:#353535;" d="M1651.3,1030.2c-13.5,0-24.6-11-24.6-24.6c0-13.5,11-24.6,24.6-24.6c13.5,0,24.6,11,24.6,24.6
					C1675.9,1019.2,1664.8,1030.2,1651.3,1030.2z M1651.3,986.1c-10.8,0-19.6,8.8-19.6,19.6c0,10.8,8.8,19.6,19.6,19.6
					c10.8,0,19.6-8.8,19.6-19.6C1670.9,994.9,1662.1,986.1,1651.3,986.1z"/>
			</g>
			<g>
				<path style="fill:#353535;" d="M1696.6,1030.5c-10.3,0-18.6-8.4-18.6-18.6c0-10.3,8.4-18.6,18.6-18.6c10.3,0,18.6,8.4,18.6,18.6
					C1715.3,1022.1,1706.9,1030.5,1696.6,1030.5z M1696.6,998.2c-7.5,0-13.6,6.1-13.6,13.6c0,7.5,6.1,13.6,13.6,13.6
					s13.6-6.1,13.6-13.6C1710.3,1004.3,1704.1,998.2,1696.6,998.2z"/>
			</g>
		</g>
	</g>
</g>
</svg>
